<?xml version="1.0" encoding="UTF-8"?><svg id="Layer_2" xmlns="http://www.w3.org/2000/svg" xmlns:xlink="http://www.w3.org/1999/xlink" viewBox="0 0 953.98 322.82"><defs><style>.cls-1{fill:#fff;}.cls-2{fill:#00b8eb;}.cls-3{fill:url(#linear-gradient);}.cls-4{fill:#00fd63;}</style><linearGradient id="linear-gradient" x1="813.47" y1="209" x2="496.94" y2="209" gradientTransform="translate(0 322.84) scale(1 -1)" gradientUnits="userSpaceOnUse"><stop offset="0" stop-color="#00fd63"/><stop offset=".12" stop-color="#00f86b"/><stop offset=".32" stop-color="#00ec83"/><stop offset=".56" stop-color="#00d9a9"/><stop offset=".84" stop-color="#00bedd"/><stop offset=".91" stop-color="#00b8eb"/></linearGradient></defs><g id="Layer_1-2"><path class="cls-2" d="M226.02,89.66c39.63,35.62,42.88,96.61,7.26,136.24s-96.61,42.88-136.24,7.26c-39.63-35.62-42.88-96.61-7.26-136.24,35.62-39.63,96.61-42.88,136.24-7.26h0ZM208.84,91.54c-.83-.56-1.97-.07-2.15.92-2.62,14.67-7.07,30-13.43,45.34-19.09,46.02-50.24,79.8-79.61,90.39-1.07.39-1.3,1.82-.37,2.47,39.83,27.71,99.47,16.93,123.64-31.29,19.51-38.93,6.05-84.73-28.08-107.83h0ZM189.93,110.79c2.2-7.49,3.98-14.98,5.23-22.43l.5-2.98c.11-.64-.24-1.28-.83-1.53-31.4-13.47-66.42-6.33-90.11,15.19-1.24,1.12.21,3.07,1.65,2.23,31.57-18.42,70.03-17.6,80.91,9.6.5,1.24,2.27,1.21,2.65-.08h0ZM250.72,76.58c2.43,2.56,4.78,5.22,7.01,8.02,1.33,1.67,2.62,3.37,3.87,5.12,16.22,22.67,23.66,48.97,22.98,74.84-.05,1.78-.13,3.55-.25,5.32s-.31,3.54-.51,5.3c-3.18,28.14-15.99,55.07-37.55,75.5-2.56,2.43-5.22,4.78-8.02,7.01-1.67,1.33-3.36,2.63-5.11,3.88-22.67,16.23-48.97,23.65-74.84,22.97-3.56-.09-7.1-.34-10.63-.74-28.14-3.18-55.07-16-75.51-37.56l-28.86,25.14c27.31,29.41,63.75,46.7,101.74,50.59,3.53.36,7.08.61,10.63.74,34.44,1.26,69.55-8.42,99.74-30.03,2.75-1.97,5.4-4.02,7.99-6.12,2.78-2.26,5.43-4.61,8.02-7.01,29.41-27.31,46.68-63.75,50.57-101.75.18-1.77.39-3.53.51-5.3.12-1.77.19-3.55.26-5.32,1.26-34.44-8.43-69.55-30.04-99.74-1.97-2.75-4.03-5.39-6.14-7.98-2.26-2.77-4.6-5.44-7-8.03C252.27,22.02,215.83,4.73,177.84.84l-2.63,38.17c28.14,3.18,55.08,16,75.51,37.56h0Z"/><path class="cls-4" d="M65.14,238.24l-28.85,25.13c-2.11-2.59-4.17-5.23-6.14-7.98C8.54,225.2-1.15,190.09.11,155.65l38.18,2.63c-.68,25.87,6.75,52.17,22.98,74.84,1.25,1.75,2.55,3.46,3.87,5.12h0ZM84.63,65.14c1.67-1.33,3.36-2.63,5.11-3.88,22.67-16.22,48.97-23.65,74.84-22.97L167.21.11c-34.44-1.26-69.55,8.42-99.74,30.03-2.75,1.97-5.4,4.02-7.99,6.12-2.78,2.26-5.43,4.61-8.02,7.01C22.05,70.58,4.78,107.02.89,145.02l38.17,2.63c3.18-28.14,15.99-55.06,37.55-75.5,2.56-2.43,5.22-4.78,8.02-7.01Z"/><path class="cls-1" d="M400.82,246.11c.69-7.92-1.21-14.14-5.72-18.66-4.51-4.52-11.9-6.78-22.17-6.78h-22.79l2.1,12.57-5.43,62.09h20.1l2.14-24.46h3.19c8.97,0,15.81-2.19,20.51-6.58s7.39-10.45,8.07-18.17h0ZM380.74,245.91c-.23,2.57-1.11,4.62-2.67,6.14-1.55,1.52-3.45,2.28-5.69,2.28h-1.88l1.5-17.13h1.88c2.44,0,4.25.84,5.42,2.52s1.65,3.75,1.44,6.19h0ZM938.83,277.4l4.96-56.74h-23.3l2.1,12.57-5.43,62.09h35.25l1.57-17.92h-15.15,0ZM799.32,220.66l-23.76,74.66h20.79l2.51-9.41h13.37l.86,9.41h20.79l-10.6-74.66h-23.96,0ZM802.64,269.88l4.73-20.1c.19-.73.39-1.58.57-2.57.19-.99.45-2.34.8-4.06s.68-3.27,1-4.65c.08,1.39.14,2.94.19,4.65.05,1.72.08,3.07.09,4.06s.05,1.85.12,2.57l1.11,20.1h-8.61ZM883.74,220.66h-23.3l2.1,12.57-5.43,62.09h35.25l1.57-17.92h-15.15l4.96-56.74h0ZM440.06,220.66l-23.76,74.66h20.79l2.51-9.41h13.37l.86,9.41h20.79l-10.6-74.66h-23.96,0ZM443.38,269.88l4.73-20.1c.19-.73.39-1.58.57-2.57.19-.99.45-2.34.8-4.06s.68-3.27,1-4.65c.08,1.39.14,2.94.19,4.65.05,1.72.08,3.07.09,4.06s.05,1.85.12,2.57l1.11,20.1h-8.61ZM501.18,220.66l2.1,12.57-5.43,62.09h20.1l6.53-74.66h-23.3ZM748.34,262.22c-2.22-2.69-6.01-4.43-11.38-5.22,9.36-.8,14.45-5.87,15.26-15.22.56-6.45-1.15-11.58-5.15-15.39-4-3.82-10.3-5.72-18.9-5.72h-26.72l2.1,12.57-5.43,62.09h28.38c6.7,0,12.32-1.97,16.85-5.92,4.53-3.95,7.07-9.08,7.62-15.39.45-5.17-.43-9.1-2.65-11.79h.02ZM730.27,272.02c-.2,2.26-1.1,4.03-2.69,5.32-1.6,1.29-3.65,1.94-6.16,1.94-.66,0-1.25-.03-1.77-.1l1.25-14.32h1.58c2.64,0,4.65.63,6.02,1.89s1.96,3.02,1.77,5.27h0ZM732,243.17c-.18,2.06-1.01,3.65-2.5,4.78-1.48,1.13-3.45,1.69-5.89,1.69h-1.39l1.12-12.83c.73-.07,1.43-.1,2.09-.1,4.75,0,6.94,2.15,6.56,6.47h.01ZM584.41,220.66l2.49,14.91c-.6,12.61-1.35,28.83-1.34,30.15-1.48-7.85-11.91-45.05-11.91-45.05h-22.61l2.1,12.57-5.43,62.09h19.41l2.57-43.07,11.39,43.07h19.41l6.53-74.66h-22.61ZM631.82,220.66l-1.57,17.92h11.49l-4.96,56.74h20.1l4.96-56.74h11.49l1.57-17.92h-43.08Z"/><path class="cls-3" d="M430.47,81.49c2.05,2.95,2.9,6.56,2.54,10.83v.11c-.4,4.55-1.97,8.16-4.71,10.85-2.74,2.68-6.1,4.02-10.06,4.02h-3.32l2.65-30.26h3.32c1.08,0,2.09.09,3.02.28,2.81.56,5,1.95,6.56,4.18h0ZM600.87,30.48c-6.3-1.96-12.82-2.96-19.39-2.96-17.96,0-35.54,7.1-50.05,19.7l1.46-16.74h-80.81l.85,5.1c-8.99-3.39-19.76-5.1-32.21-5.1h-62.57l6.98,41.72-10.92,124.85h70.18l3.84-43.88c9.1-1.07,17.24-3.45,24.36-7.09l-4.46,50.97h70.18l1.45-16.59c12.31,12.6,28.64,19.7,46.6,19.7,6.79,0,13.67-1.05,20.48-3.11h367.12l-1.78-166.57h-351.33.02ZM464.04,111.03s-.02.03-.02.05c-1.31,2.94-2.92,5.64-4.76,8.13-1.5,2.03-3.15,3.93-5.01,5.66-8.31,7.76-20.39,11.63-36.24,11.63h-5.64l-3.78,43.21h-35.51l9.6-109.69-3.72-22.21h40.26c18.15,0,31.21,4,39.17,11.98h0c.23.23.42.49.64.73,4.85,5.14,7.87,11.48,9.08,19,.65,4.07.81,8.47.39,13.24-.56,6.44-1.95,12.21-4.1,17.34-.13.3-.23.62-.36.92h0ZM504.53,156.63l-2.02,23.08h-35.51l9.6-109.69-3.72-22.21h41.17l-9.52,108.82h0ZM592.49,89.84c-3.51-2.82-7.81-4.47-12.59-4.47-8.35,0-16.16,4.98-21.17,12.55-1.62,2.45-2.93,5.18-3.89,8.09-.82,2.49-1.4,5.11-1.63,7.83-1.38,15.73,8.35,28.47,21.71,28.47,4.05,0,7.97-1.2,11.5-3.28.58-.34,1.16-.7,1.72-1.09.05-.03.1-.07.15-.1l-3.69,42.21h0c-5.38,1.79-10.98,2.77-16.7,2.77-14.16,0-26.64-5.91-35.91-15.74-.08-.09-.16-.18-.24-.27-2.2-2.36-4.21-4.96-6.02-7.74-.44-.67-.87-1.35-1.28-2.05-.89-1.49-1.74-3.03-2.51-4.62-5.36-11.01-7.89-24.28-6.64-38.57.62-7.14,2.15-14.03,4.43-20.51.38-1.08.78-2.15,1.2-3.21,1.26-3.17,2.71-6.23,4.32-9.16,1.07-1.95,2.22-3.85,3.44-5.69.95-1.44,1.96-2.83,2.99-4.19,1.53-2.02,3.15-3.95,4.84-5.78.8-.86,1.62-1.71,2.46-2.53,11.39-11.14,25.82-17.92,41-17.92,5.71,0,11.15.98,16.21,2.77l-3.69,42.21h0v.02ZM582.68,105.16l-1.52,17.37-2.05,1.44c-1.28.9-2.14,1.01-2.68,1.01-3.24,0-6.45-4.76-5.89-11.14.56-6.37,4.6-11.14,7.84-11.14.53,0,1.38.1,2.5,1.01l1.8,1.45ZM690.23,179.71h-37.61l-18.73-60.88c.12,5.25-5.33,60.88-5.33,60.88h-35.07l9.6-109.69-3.72-22.21h40.73s-.06.77-.16,2.1c-.04.45-.07.97-.12,1.55-.2,2.52-.48,6.17-.82,10.41-.02.24-.04.47-.06.71-.16,2.03-.33,4.17-.51,6.38-.15,1.92-.31,3.88-.48,5.86-.19,2.26-.37,4.54-.56,6.77-.09,1.12-.19,2.23-.28,3.32-.11,1.34-.23,2.66-.34,3.93-.02.27-.05.54-.07.81-.66,7.45-1.24,13.31-1.54,14.67l26.37-56.5h36.74l-34.09,63.68,26.04,68.22h.01ZM712.55,188.03l-29.28-76.71,5.07-9.47h31.75l-7.54,86.18ZM720.45,84.51h-16.09l3.21-36.7h23.8l-1.84,6.17-9.09,30.52h.01ZM936.37,179.71h-37.26s.97-20.48,1.93-41.25c.11-2.4.22-4.8.33-7.17.3-6.57.6-12.92.85-18.41.43-9.51.74-16.43.75-17.31-.81,4.7-10.45,40.92-16.71,64.29-.31,1.17-.62,2.3-.91,3.4-.8,2.99-1.53,5.69-2.16,8.01-.23.85-.44,1.65-.64,2.39-.17.63-.33,1.22-.48,1.77-.72,2.68-1.15,4.28-1.15,4.28h-29.04s-.19-2.85-.51-7.48c-.09-1.3-.19-2.75-.29-4.32-1.47-21.86-4.46-66.97-4.43-72.35-.15,1.16-1.74,12.77-3.69,27.01-.25,1.84-.51,3.72-.77,5.64-.6,4.39-1.23,8.92-1.84,13.4-.27,1.99-.55,3.97-.81,5.92-.25,1.82-.5,3.62-.74,5.37-2.05,14.87-3.69,26.8-3.69,26.8h-104.47l2.02-23.08,9.52-108.82h66.13l-2.71,30.96h-30.61l-1.68,19.24h27.46l-1.85,21.13-.77,8.79h-27.46l-1.76,20.12h34.87l14.41-70.59,6.06-29.65h44.26s4.37,59.3,4.36,70.15c.29-1.72,1.44-6.5,3.04-12.78.22-.85.44-1.74.67-2.64.22-.87.45-1.75.68-2.66.49-1.9,1-3.87,1.53-5.91.25-.95.5-1.92.75-2.89.28-1.07.56-2.15.85-3.23.53-2.01,1.06-4.04,1.6-6.07.57-2.15,1.13-4.28,1.69-6.38.52-1.97,1.04-3.91,1.54-5.78.53-2.01,1.05-3.94,1.54-5.78.46-1.71.89-3.33,1.3-4.84.23-.84.44-1.65.65-2.41.18-.66.35-1.29.51-1.89.19-.7.36-1.35.52-1.95.83-3.07,1.33-4.93,1.33-4.93h43.91l1.41,131.9h-.04Z"/></g></svg>