<?xml version="1.0" encoding="UTF-8"?><svg id="Layer_2" xmlns="http://www.w3.org/2000/svg" viewBox="0 0 935.94 935.85"><defs><style>.cls-1{fill:#00b8eb;}.cls-2{fill:#00fd63;}</style></defs><g id="Layer_1-2"><path class="cls-1" d="M726.78,222c7.03,7.42,13.85,15.12,20.32,23.25,3.84,4.83,7.59,9.77,11.22,14.85,47.03,65.71,68.58,141.95,66.6,216.94-.14,5.15-.37,10.3-.73,15.43-.36,5.14-.91,10.26-1.48,15.38-9.2,81.56-46.36,159.62-108.85,218.86-7.42,7.03-15.12,13.85-23.25,20.32-4.83,3.84-9.74,7.62-14.82,11.26-65.71,47.03-141.94,68.55-216.94,66.58-10.31-.27-20.59-.98-30.81-2.13-81.56-9.2-159.65-46.38-218.89-108.88l-83.66,72.88c79.17,85.25,184.79,135.37,294.93,146.66,10.24,1.05,20.51,1.76,30.81,2.13,99.84,3.65,201.6-24.4,289.13-87.04,7.97-5.71,15.67-11.65,23.17-17.75,8.04-6.54,15.75-13.35,23.26-20.32,85.25-79.17,135.3-184.81,146.6-294.95.53-5.12,1.13-10.24,1.48-15.38.36-5.14.56-10.28.75-15.43,3.65-99.84-24.44-201.61-87.09-289.13-5.71-7.97-11.68-15.63-17.79-23.14-6.54-8.04-13.33-15.77-20.29-23.28C731.28,63.85,625.65,13.74,515.52,2.45l-7.62,110.66c81.57,9.2,159.66,46.38,218.9,108.88h-.02Z"/><path class="cls-2" d="M188.82,690.61l-83.63,72.85c-6.1-7.51-12.08-15.17-17.79-23.14C24.75,652.8-3.33,551.03.31,451.19l110.68,7.63c-1.97,75,19.57,151.24,66.6,216.95,3.63,5.08,7.38,10.02,11.22,14.85h.01ZM245.31,188.82c4.83-3.85,9.74-7.62,14.82-11.26,65.71-47.03,141.94-68.55,216.94-66.58L484.69.31c-99.84-3.64-201.6,24.4-289.13,87.04-7.97,5.71-15.67,11.65-23.17,17.75-8.04,6.54-15.75,13.35-23.26,20.32C63.88,204.59,13.83,310.23,2.53,420.36l110.66,7.62c9.2-81.56,46.36-159.62,108.85-218.86,7.42-7.03,15.12-13.85,23.25-20.32l.02.02Z"/><path class="cls-1" d="M655.18,259.92c114.87,103.25,124.29,280.06,21.04,394.93s-280.06,124.29-394.93,21.04-124.29-280.06-21.04-394.93,280.06-124.29,394.93-21.04h0ZM605.4,265.35c-2.42-1.64-5.71-.2-6.23,2.67-7.6,42.52-20.49,86.95-38.93,131.42-55.34,133.42-145.63,231.34-230.78,262.03-3.1,1.12-3.77,5.27-1.06,7.15,115.46,80.33,288.35,49.08,358.41-90.69,56.57-112.85,17.55-245.63-81.4-312.58h-.01ZM550.56,321.17c6.37-21.71,11.53-43.43,15.15-65.02l1.45-8.63c.31-1.85-.69-3.71-2.42-4.45-91.02-39.03-192.53-18.36-261.2,44.03-3.58,3.26.61,8.91,4.79,6.47,91.52-53.41,203-51.03,234.55,27.82,1.44,3.6,6.58,3.51,7.68-.22h0Z"/></g></svg>