<svg fill="none" height="283" viewBox="0 0 175 283" width="175" xmlns="http://www.w3.org/2000/svg"
  xmlns:xlink="http://www.w3.org/1999/xlink">
  <linearGradient id="a" gradientUnits="userSpaceOnUse" x1="87" x2="87" y1="51.5" y2="162">
    <stop offset="0" stop-color="#000" />
    <stop offset="1" stop-color="#000" stop-opacity="0" />
  </linearGradient>

  <rect fill="none" height="283" rx="12" width="175" />

  <path
    d="m22.5 118.499-12.5 29.5c31.5 16.001 46 18.001 78.5 20.501 29.5 5.5 76.5-19.5 76-20.501-.4-.8-6.167-16.666-9-24.499-.5-2-3-11.5-10.5-14-2.4-1.2-23-9.8333-33-14-1.5-1-5.5-7-6.5-8.0008-.8-.8006-.667-8.9997-.5-12.9992.167-2.5 1-6.0008 1-6.0008 5.5-1.9992 6-11.4992 6-11.4992 1.2-4.8-2.5-5-4-3.0008v-6.9992c0-.4-.667-7.1667-1-10.5 0-5.6667-6.5-15-20-16.5-16 .4-20.6667 11.1667-21 16.5v10l.5 7.4992c-1.3333-2.8333-4-1.4992-4 2.5 0 8.8 4.3333 11.6667 6.5 12 .6667 1.8334 2.1 6 2.5 8s-.1667 8.1667-.5 11l-4 7.5c-8.8333 3.3334-27.9 10.4998-33.5 12.4998s-9.6667 8.167-11 11z"
    fill="url(#a)" fill-opacity=".5" />
</svg>